<?xml version="1.0" encoding="UTF-8"?>
<svg width="485px" height="485px" viewBox="0 0 485 485" version="1.1" xmlns="http://www.w3.org/2000/svg" xmlns:xlink="http://www.w3.org/1999/xlink">
    <!-- Generator: Sketch 52.6 (67491) - http://www.bohemiancoding.com/sketch -->
    <title>Artboard</title>
    <desc>Created with Sketch.</desc>
    <g id="Artboard" stroke="none" stroke-width="1" fill="none" fill-rule="evenodd">
        <path d="M439.8,219.8 C439.8,333.8 347.4,426.2 233.4,426.2 C119.4,426.2 27,333.8 27,219.8 C27,105.8 119.4,13.4 233.4,13.4 C347.4,13.3 439.8,105.8 439.8,219.8" id="Path" fill="#008CC1"></path>
        <path d="M118.5,152.1 C118.5,161.2 111.1,168.6 102,168.6 C92.9,168.6 85.5,161.2 85.5,152.1 C85.5,143 92.9,135.6 102,135.6 C111.2,135.6 118.5,143 118.5,152.1" id="Path" fill="#FFFFFF"></path>
        <path d="M121.3,197.4 C121.3,206.5 113.9,213.9 104.8,213.9 C95.7,213.9 88.3,206.5 88.3,197.4 C88.3,188.3 95.7,180.9 104.8,180.9 C113.9,180.9 121.3,188.2 121.3,197.4" id="Path" fill="#FFFFFF"></path>
        <path d="M131.4,245.4 C131.4,254.5 124,261.9 114.9,261.9 C105.8,261.9 98.4,254.5 98.4,245.4 C98.4,236.3 105.8,228.9 114.9,228.9 C124,228.8 131.4,236.2 131.4,245.4" id="Path" fill="#FFFFFF"></path>
        <path d="M154,288.4 C154,297.5 146.6,304.9 137.5,304.9 C128.4,304.9 121,297.5 121,288.4 C121,279.3 128.4,271.9 137.5,271.9 C146.6,271.8 154,279.2 154,288.4" id="Path" fill="#FFFFFF"></path>
        <path d="M330.7,348.5 C330.7,357.6 323.3,365 314.2,365 C305.1,365 297.7,357.6 297.7,348.5 C297.7,339.4 305.1,332 314.2,332 C323.3,332 330.7,339.4 330.7,348.5" id="Path" fill="#FFFFFF"></path>
        <path d="M360.7,313 C360.7,322.1 353.3,329.5 344.2,329.5 C335.1,329.5 327.7,322.1 327.7,313 C327.7,303.9 335.1,296.5 344.2,296.5 C353.3,296.5 360.7,303.9 360.7,313" id="Path" fill="#FFFFFF"></path>
        <path d="M273.7,62 C273.7,71.1 266.3,78.5 257.2,78.5 C248.1,78.5 240.7,71.1 240.7,62 C240.7,52.9 248.1,45.5 257.2,45.5 C266.3,45.5 273.7,52.9 273.7,62" id="Path" fill="#FFFFFF"></path>
        <path d="M230.3,46.8 C230.3,55.9 222.9,63.3 213.8,63.3 C204.7,63.3 197.3,55.9 197.3,46.8 C197.3,37.7 204.7,30.3 213.8,30.3 C222.9,30.3 230.3,37.7 230.3,46.8" id="Path" fill="#FFFFFF"></path>
        <circle id="Oval" stroke="#FFFFFF" stroke-width="3.5" fill="#66B245" cx="347.3" cy="170.6" r="110"></circle>
        <circle id="Oval" stroke="#FFFFFF" stroke-width="3.5" fill="#66B245" cx="196.6" cy="394.9" r="90"></circle>
        <circle id="Oval" stroke="#FFFFFF" stroke-width="3.5" fill="#66B245" cx="122.5" cy="60" r="60"></circle>
    </g>
</svg>